<?xml version="1.0" encoding="UTF-8"?>
<svg version="1.1" xmlns="http://www.w3.org/2000/svg" width="24" height="24">
<path color="#fff" d="M0 0 C4.12788545 2.06394273 6.29426025 3.74692367 8 8 C8.88355595 15.2338121 7.41869883 22.37711967 5.99633789 29.44482422 C5.78336563 30.54201279 5.57039337 31.63920135 5.35096741 32.76963806 C4.65047248 36.3664694 3.93671596 39.96052677 3.22265625 43.5546875 C2.73101612 46.06414583 2.24017846 48.5737615 1.75010681 51.08352661 C0.72416228 56.32796062 -0.30741616 61.57123426 -1.34448242 66.81347656 C-2.80625478 74.20258498 -4.25610601 81.59399477 -5.7034415 88.9859426 C-7.75020329 99.43599603 -9.80271417 109.88492552 -11.86694336 120.33154297 C-12.06906433 121.35808487 -12.2711853 122.38462677 -12.47943115 123.442276 C-12.66591721 124.38412247 -12.85240326 125.32596893 -13.04454041 126.2963562 C-13.20585418 127.1129817 -13.36716795 127.9296072 -13.53337002 128.77097893 C-13.97132481 130.86302293 -14.46594479 132.9306299 -15 135 C-13.20381226 134.99000725 -13.20381226 134.99000725 -11.37133789 134.97981262 C-0.0718594 134.91892777 11.22758569 134.87399189 22.52719116 134.84456348 C28.33606823 134.82892531 34.14481258 134.80772058 39.95361328 134.77368164 C45.56219788 134.74102261 51.17065502 134.72313308 56.77932739 134.71536827 C58.91629034 134.70983654 61.05324652 134.69903442 63.19015503 134.68280983 C66.1894219 134.66094884 69.18816593 134.65803673 72.1875 134.65942383 C73.06575943 134.648638 73.94401886 134.63785217 74.84889221 134.6267395 C83.33597356 134.66905324 89.92609313 136.92609313 96 143 C99.54874629 147.73166172 99.45720938 152.68473754 99.69140625 158.390625 C98.01523079 167.1408291 91.31601441 174.50628089 86 181.4375 C84.66725536 183.19477168 83.33524135 184.95259769 82.00390625 186.7109375 C81.33504395 187.59233398 80.66618164 188.47373047 79.97705078 189.38183594 C76.92988572 193.41712837 73.9313103 197.48754445 70.9375 201.5625 C70.36451172 202.34165771 69.79152344 203.12081543 69.20117188 203.92358398 C68.04514129 205.49589611 66.88937883 207.0684054 65.73388672 208.64111328 C62.82628372 212.59679621 59.91283606 216.54816989 57 220.5 C55.83330558 222.08331288 54.6666389 223.66664621 53.5 225.25 C51.16666667 228.41666667 48.83333333 231.58333333 46.5 234.75 C45.92233887 235.5339917 45.34467773 236.3179834 44.74951172 237.12573242 C43.58456151 238.70668983 42.41952266 240.28758192 41.25439453 241.8684082 C38.3107302 245.86255828 35.36868654 249.8578843 32.4296875 253.85546875 C26.50190275 261.91517608 20.54832033 269.95324903 14.53417969 277.94873047 C8.29465252 286.25368527 2.15228357 294.63034487 -4 303 C-8.09676333 308.57329581 -12.19838914 314.14289617 -16.30957031 319.70556641 C-17.99246091 321.98976714 -19.66465736 324.2815146 -21.3359375 326.57421875 C-22.39032209 328.0080353 -23.44499588 329.44163924 -24.5 330.875 C-25.20213623 331.84699341 -25.20213623 331.84699341 -25.91845703 332.83862305 C-29.29210236 337.39624745 -32.84614226 342.18268931 -38.5625 343.6640625 C-42.85844048 343.5952173 -46.04019774 343.48053021 -49.5 340.75 C-53.15793845 336.72626771 -54.20219119 334.63517656 -54.14419365 329.16597557 C-53.84558824 324.68053519 -52.87287745 320.29758391 -51.99633789 315.89575195 C-51.78336563 314.79900146 -51.57039337 313.70225098 -51.35096741 312.57226562 C-50.64781008 308.95967958 -49.93533085 305.34900075 -49.22265625 301.73828125 C-48.73126345 299.22448658 -48.24042146 296.71058417 -47.75010681 294.19657898 C-46.72250255 288.93455453 -45.69090874 283.67333773 -44.65551758 278.4128418 C-43.19613874 270.99814917 -41.74550664 263.58176514 -40.2965585 256.16502821 C-39.16946213 250.39744567 -38.0399457 244.63033675 -36.91015625 238.86328125 C-36.54874888 237.01832786 -36.54874888 237.01832786 -36.18004036 235.13610268 C-35.49896251 231.66250958 -34.81631656 228.18922892 -34.13305664 224.71606445 C-33.82987518 223.1691819 -33.82987518 223.1691819 -33.52056885 221.59104919 C-33.33408279 220.64486725 -33.14759674 219.6986853 -32.95545959 218.72383118 C-32.71348894 217.49304824 -32.71348894 217.49304824 -32.46662998 216.23740101 C-32.02965228 214.142177 -31.5351514 212.07208407 -31 210 C-32.20554535 210.00888245 -33.4110907 210.01776489 -34.65316772 210.0269165 C-46.04029609 210.1081682 -57.42736526 210.16804501 -68.81471825 210.20724869 C-74.66843162 210.2280816 -80.52191008 210.25632095 -86.37548828 210.30175781 C-92.02947916 210.34536845 -97.68324474 210.3691694 -103.3373909 210.37950897 C-105.48946298 210.38687303 -107.64152339 210.40125313 -109.79349899 210.42292023 C-112.8188166 210.45215619 -115.84321515 210.45594754 -118.86865234 210.45410156 C-120.18928177 210.47567322 -120.18928177 210.47567322 -121.53659058 210.49768066 C-128.70213321 210.45068165 -135.8499862 208.89342688 -141.25390625 203.9296875 C-141.90166016 202.91261719 -141.90166016 202.91261719 -142.5625 201.875 C-143.24505859 200.85019531 -143.24505859 200.85019531 -143.94140625 199.8046875 C-145.95225632 196.37659624 -146.28180169 194.00097482 -146.4375 190 C-146.49808594 188.9275 -146.55867188 187.855 -146.62109375 186.75 C-145.19722612 178.15306338 -138.63779369 170.89304604 -133.5 164.0625 C-132.26287202 162.40115247 -131.02589728 160.73969083 -129.7890625 159.078125 C-129.16161133 158.23830078 -128.53416016 157.39847656 -127.88769531 156.53320312 C-125.45395676 153.26723427 -123.04199368 149.98555362 -120.63085938 146.70288086 C-115.30643774 139.45435302 -109.94058098 132.2387937 -104.53417969 125.05126953 C-98.89690914 117.5479322 -93.34128721 109.98469459 -87.78222656 102.42333984 C-84.27681517 97.65694074 -80.76528965 92.89504464 -77.25488281 88.13232422 C-74.31110087 84.13789679 -71.36886014 80.14235181 -68.4296875 76.14453125 C-62.50190275 68.08482392 -56.54832033 60.04675097 -50.53417969 52.05126953 C-46.70237552 46.95104967 -42.90707211 41.82468808 -39.125 36.6875 C-38.25693726 35.50861206 -38.25693726 35.50861206 -37.37133789 34.3059082 C-34.30157061 30.13436907 -31.23684578 25.9591789 -28.17578125 21.78125 C-27.54978027 20.92829346 -26.9237793 20.07533691 -26.27880859 19.1965332 C-25.08607905 17.5712771 -23.89489785 15.9448831 -22.70556641 14.31713867 C-11.14853112 -1.42174114 -11.14853112 -1.42174114 0 0 Z " fill="#3DCE8D" transform="translate(211,16)"/>
<path d="M0 0 C31.02 0 62.04 0 94 0 C91.75132979 5.62167553 91.75132979 5.62167553 89.671875 8.3203125 C89.2092627 8.92786377 88.74665039 9.53541504 88.27001953 10.16137695 C87.76841309 10.80937256 87.26680664 11.45736816 86.75 12.125 C85.65801753 13.55795658 84.56690726 14.99157813 83.4765625 16.42578125 C82.90583008 17.17424316 82.33509766 17.92270508 81.74707031 18.69384766 C78.83456523 22.53838692 75.98042487 26.42548172 73.125 30.3125 C72.54218262 31.10454834 71.95936523 31.89659668 71.35888672 32.71264648 C69.57190754 35.14126242 67.78582629 37.57053621 66 40 C58.88455013 49.67996043 51.75595805 59.34775864 44.53417969 68.94873047 C38.29465252 77.25368527 32.15228357 85.63034487 26 94 C21.90323667 99.57329581 17.80161086 105.14289617 13.69042969 110.70556641 C12.00753909 112.98976714 10.33534264 115.2815146 8.6640625 117.57421875 C7.60967791 119.0080353 6.55500412 120.44163924 5.5 121.875 C5.03190918 122.52299561 4.56381836 123.17099121 4.08154297 123.83862305 C0.70789764 128.39624745 -2.84614226 133.18268931 -8.5625 134.6640625 C-12.85844048 134.5952173 -16.04019774 134.48053021 -19.5 131.75 C-23.15897368 127.72512895 -24.20118724 125.6353901 -24.14321518 120.1649971 C-23.84692336 115.68592633 -22.88229722 111.30820434 -22.01220703 106.91162109 C-21.80084106 105.8164769 -21.5894751 104.7213327 -21.3717041 103.59300232 C-20.67356967 99.98518495 -19.96594984 96.37930376 -19.2578125 92.7734375 C-18.76892728 90.26201624 -18.28047937 87.75050982 -17.79244995 85.23892212 C-16.76928432 79.98104802 -15.7416917 74.7240672 -14.71044922 69.46777344 C-13.51976039 63.39845102 -12.33727276 57.32757486 -11.15919983 51.25579202 C-10.0233249 45.40242139 -8.88181396 39.55016109 -7.73775864 33.69838333 C-7.25237478 31.21313711 -6.7683714 28.72762085 -6.28577042 26.24183273 C-5.61088406 22.77011576 -4.92961625 19.29971166 -4.24658203 15.82958984 C-4.04805634 14.80193008 -3.84953064 13.77427032 -3.64498901 12.71546936 C-3.4571283 11.76791275 -3.26926758 10.82035614 -3.07571411 9.84408569 C-2.91532213 9.02448553 -2.75493015 8.20488537 -2.58967781 7.36044884 C-2 5 -2 5 0 0 Z " fill="#38C284" transform="translate(181,225)"/>
<path d="M0 0 C31.02 0 62.04 0 94 0 C91.75132979 5.62167553 91.75132979 5.62167553 89.671875 8.3203125 C89.20837646 8.92907227 88.74487793 9.53783203 88.26733398 10.16503906 C87.76661377 10.81182617 87.26589355 11.45861328 86.75 12.125 C85.67228648 13.53838385 84.5955048 14.9524786 83.51953125 16.3671875 C82.95057129 17.11323242 82.38161133 17.85927734 81.79541016 18.62792969 C78.63428261 22.80436635 75.53800218 27.02847199 72.4375 31.25 C71.26965657 32.8386338 70.10169547 34.42718111 68.93359375 36.015625 C68.43915771 36.68883789 67.94472168 37.36205078 67.43530273 38.05566406 C66.72482788 39.01811035 66.72482788 39.01811035 66 40 C65.50636963 40.74217773 65.01273926 41.48435547 64.50415039 42.24902344 C64.00778076 42.8268457 63.51141113 43.40466797 63 44 C62.01 44 61.02 44 60 44 C59.505 44.99 59.505 44.99 59 46 C59 45.01 59 44.02 59 43 C57.35 43 55.7 43 54 43 C53.6596875 42.0409375 53.6596875 42.0409375 53.3125 41.0625 C52.16470196 38.73647686 52.16470196 38.73647686 49.5 38.375 C48.2625 38.189375 48.2625 38.189375 47 38 C46.34 37.34 45.68 36.68 45 36 C45 35.67 45 35.34 45 35 C42.60931266 33.89363605 42.60931266 33.89363605 40 33 C39.01 33.495 39.01 33.495 38 34 C34.125 30.25 34.125 30.25 33 28 C32.01 28.33 31.02 28.66 30 29 C28.2734375 27.92578125 28.2734375 27.92578125 26.375 26.3125 C22.21450206 22.99492823 17.93020209 20.94012582 13 19 C13 18.34 13 17.68 13 17 C11.88625 16.690625 10.7725 16.38125 9.625 16.0625 C6 15 6 15 4 14 C4 13.34 4 12.68 4 12 C3.01 12.33 2.02 12.66 1 13 C-0.5625 11.375 -0.5625 11.375 -2 9 C-1.73500958 5.75386738 -1.02879865 3.08639595 0 0 Z " fill="#299F69" transform="translate(181,225)"/>
<path d="M0 0 C0.86625 0.7425 0.86625 0.7425 1.75 1.5 C4.10400629 3.36980013 4.10400629 3.36980013 8 3 C9.02297922 3.97648017 10.01904252 4.98131338 11 6 C12.97620986 7.04622875 14.9737129 8.05439935 17 9 C17 9.66 17 10.32 17 11 C17.515625 11.0825 18.03125 11.165 18.5625 11.25 C20.8445564 11.9521712 22.51433494 12.80234416 24.5625 14 C27.8267351 16.0554427 27.8267351 16.0554427 31 17 C31.66 17.66 32.32 18.32 33 19 C33.721875 19.28875 34.44375 19.5775 35.1875 19.875 C37.50729755 20.80291902 39.42984539 21.79480616 41.5625 23.0625 C44.71442057 25.04816906 44.71442057 25.04816906 47.375 25.5625 C47.91125 25.706875 48.4475 25.85125 49 26 C49.495 27.485 49.495 27.485 50 29 C51.32796291 29.35412344 52.66216607 29.68521554 54 30 C54.433125 30.474375 54.86625 30.94875 55.3125 31.4375 C57.84065298 33.77838239 60.71112757 34.19329544 64 35 C60.57912427 41.42305052 56.37811942 47.13569863 52 52.9375 C51.2884375 53.90751953 50.576875 54.87753906 49.84375 55.87695312 C49.1528125 56.79283203 48.461875 57.70871094 47.75 58.65234375 C46.81414062 59.90519165 46.81414062 59.90519165 45.859375 61.18334961 C44 63 44 63 40 63 C40.495 62.01 40.495 62.01 41 61 C40.67 60.67 40.34 60.34 40 60 C39.34 60.66 38.68 61.32 38 62 C37.34 61.34 36.68 60.68 36 60 C34.35008418 59.29289322 32.68437744 58.62056011 31 58 C31 57.01 31 56.02 31 55 C30.505 55.99 30.505 55.99 30 57 C27.25362183 56.62118922 26.19950942 56.22167713 24.3125 54.125 C23 52 23 52 22 49 C21.67 49.99 21.34 50.98 21 52 C20.34 52 19.68 52 19 52 C18 51 17 50 16 49 C14.6846659 48.29848848 13.34882408 47.63474075 12 47 C11.175 46.484375 10.35 45.96875 9.5 45.4375 C7.15244575 43.92872163 7.15244575 43.92872163 4.875 43.5 C2.51203643 42.86987638 1.59714855 41.81494153 0 40 C-0.66 39.34 -1.32 38.68 -2 38 C-2.66 37.34 -3.32 36.68 -4 36 C-5.485 36.495 -5.485 36.495 -7 37 C-6.39024276 29.02878915 -5.03551703 21.27741124 -3.5 13.4375 C-3.27441406 12.25091797 -3.04882812 11.06433594 -2.81640625 9.84179688 C-1.12871469 1.12871469 -1.12871469 1.12871469 0 0 Z " fill="#32B67A" transform="translate(179,234)"/>
<path d="M0 0 C2 2 2 2 2.1875 3.875 C3.31952534 6.83568166 5.35740921 7.75015878 8.078125 9.18359375 C10.67542236 10.28691722 13.20195942 10.72702043 16 11 C16.33 11.99 16.66 12.98 17 14 C18.99117408 14.69258229 20.9921136 15.35747635 23 16 C24.625 17.5 24.625 17.5 26 19 C27.9837767 20.28436734 27.9837767 20.28436734 30 21 C30.66 20.67 31.32 20.34 32 20 C32.495 21.485 32.495 21.485 33 23 C31.92358398 24.8659668 31.92358398 24.8659668 30.24609375 26.94921875 C29.63830078 27.71556641 29.03050781 28.48191406 28.40429688 29.27148438 C27.75525391 30.06876953 27.10621094 30.86605469 26.4375 31.6875 C25.18556076 33.25339706 23.9342538 34.81979984 22.68359375 36.38671875 C22.06693848 37.1535498 21.4502832 37.92038086 20.81494141 38.71044922 C18.57177185 41.54021033 16.41217623 44.42604989 14.27075195 47.33325195 C11.77432949 50.60761817 9.84121875 52.67507904 5.67578125 53.41015625 C1.29233498 53.66569348 -1.98218548 53.54177909 -5.5 50.75 C-9.85871092 45.95541799 -10.20160881 43.49329388 -10 37 C-9.63323052 34.52568706 -9.20401464 32.06006413 -8.72265625 29.60546875 C-8.59185165 28.93203934 -8.46104706 28.25860992 -8.32627869 27.56477356 C-8.05109964 26.15496071 -7.77278642 24.74575625 -7.49145508 23.3371582 C-7.06047051 21.17732945 -6.6398248 19.01567455 -6.22070312 16.85351562 C-4.15125784 6.30251568 -4.15125784 6.30251568 -3 4 C-2.01 4 -1.02 4 0 4 C-0.33 3.01 -0.66 2.02 -1 1 C-0.67 0.67 -0.34 0.34 0 0 Z " fill="#3CCD8C" transform="translate(167,306)"/>
<path d="M0 0 C0.5775 0.495 1.155 0.99 1.75 1.5 C4.10400629 3.36980013 4.10400629 3.36980013 8 3 C9.02297922 3.97648017 10.01904252 4.98131338 11 6 C12.97620986 7.04622875 14.9737129 8.05439935 17 9 C17 9.66 17 10.32 17 11 C17.515625 11.0825 18.03125 11.165 18.5625 11.25 C20.8445564 11.9521712 22.51433494 12.80234416 24.5625 14 C27.8267351 16.0554427 27.8267351 16.0554427 31 17 C31.66 17.66 32.32 18.32 33 19 C33.721875 19.28875 34.44375 19.5775 35.1875 19.875 C37.50729755 20.80291902 39.42984539 21.79480616 41.5625 23.0625 C44.71442057 25.04816906 44.71442057 25.04816906 47.375 25.5625 C47.91125 25.706875 48.4475 25.85125 49 26 C49.495 27.485 49.495 27.485 50 29 C51.32796291 29.35412344 52.66216607 29.68521554 54 30 C54.433125 30.474375 54.86625 30.94875 55.3125 31.4375 C57.84065298 33.77838239 60.71112757 34.19329544 64 35 C57.728 46.424 57.728 46.424 53 48 C52.34 46.35 51.68 44.7 51 43 C50.67 44.32 50.34 45.64 50 47 C48.68 46.67 47.36 46.34 46 46 C46 45.01 46 44.02 46 43 C45.01 42.67 44.02 42.34 43 42 C41.3125 40.4375 41.3125 40.4375 40 39 C39.34 39.66 38.68 40.32 38 41 C37.34 40.34 36.68 39.68 36 39 C35.01 39 34.02 39 33 39 C32.34 38.34 31.68 37.68 31 37 C30.34 37 29.68 37 29 37 C27.62689293 35.70766393 26.28965176 34.37562854 25 33 C24.01 33.495 24.01 33.495 23 34 C19 29.375 19 29.375 19 26 C18.34 26.99 17.68 27.98 17 29 C12.01987239 27.49087042 8.75740058 24.44338151 5 21 C4.67 21.99 4.34 22.98 4 24 C3.5978125 23.0409375 3.5978125 23.0409375 3.1875 22.0625 C2.11332248 19.66868314 2.11332248 19.66868314 -1 19 C-3.41647749 14.16704501 -2.36483465 7.34532779 -1 2.3125 C-0.505 1.1678125 -0.505 1.1678125 0 0 Z " fill="#2EAB72" transform="translate(179,234)"/>
<path d="M0 0 C22.11 0 44.22 0 67 0 C66.10258456 3.58966178 65.61211805 4.84216579 63.48828125 7.609375 C62.97716797 8.28226563 62.46605469 8.95515625 61.93945312 9.6484375 C61.40255859 10.34195313 60.86566406 11.03546875 60.3125 11.75 C59.79494141 12.42804688 59.27738281 13.10609375 58.74414062 13.8046875 C57.69875524 15.17423349 56.64943154 16.54078229 55.59619141 17.90429688 C54.49120909 19.35507206 53.40612314 20.82113722 52.33740234 22.29882812 C51.80711426 23.03037109 51.27682617 23.76191406 50.73046875 24.515625 C50.25375732 25.18368164 49.7770459 25.85173828 49.28588867 26.54003906 C48.86154541 27.02182617 48.43720215 27.50361328 48 28 C47.34 28 46.68 28 46 28 C46 27.34 46 26.68 46 26 C44.88625 25.690625 43.7725 25.38125 42.625 25.0625 C39 24 39 24 37 23 C37 22.34 37 21.68 37 21 C36.21625 20.855625 35.4325 20.71125 34.625 20.5625 C32 20 32 20 30 19 C30 18.34 30 17.68 30 17 C28.35 16.67 26.7 16.34 25 16 C25 15.34 25 14.68 25 14 C24.01 14.33 23.02 14.66 22 15 C21.34 13.68 20.68 12.36 20 11 C18.68 11 17.36 11 16 11 C16 10.34 16 9.68 16 9 C15.071875 8.896875 14.14375 8.79375 13.1875 8.6875 C9.70453746 7.93627279 9.33563976 7.42906535 7 5 C4.70905214 3.85968586 2.38291669 2.94417454 0 2 C0 1.34 0 0.68 0 0 Z " fill="#239360" transform="translate(207,226)"/>
</svg>
